<?xml version="1.0" encoding="utf-8"?>
<svg viewBox="0 0 400 400" xmlns="http://www.w3.org/2000/svg">
  <g id="svgg">
    <g id="g-1" transform="matrix(0.948255, 0, 0, 0.948255, 20.880785, -31.450382)" style="">
      <path id="path0" d="M153.307 34.202 C 141.331 36.190,135.624 41.282,130.215 54.806 C 124.861 68.192,124.483 79.489,129.268 83.114 C 139.965 91.217,180.527 81.198,196.594 66.485 C 216.055 48.666,188.769 28.315,153.307 34.202 M226.140 50.746 C 221.083 51.350,218.670 53.329,214.668 60.159 C 207.410 72.543,192.809 82.935,168.563 92.972 C 152.264 99.719,128.871 98.718,113.645 90.622 C 106.974 87.075,106.452 87.178,108.173 91.704 C 110.829 98.691,108.021 113.219,103.470 116.031 C 92.643 122.723,145.157 119.108,166.222 111.712 C 235.615 87.347,273.317 56.393,240.122 51.039 C 236.109 50.392,232.280 49.946,231.611 50.050 C 230.942 50.153,228.480 50.466,226.140 50.746 M87.178 91.208 C 83.038 94.464,76.596 107.547,76.596 112.699 C 76.596 114.956,75.832 118.015,74.899 119.496 C 69.004 128.852,48.593 194.367,50.238 198.654 C 52.082 203.460,82.072 202.801,124.924 197.014 C 128.435 196.540,131.307 196.492,131.307 196.909 C 131.307 197.325,130.523 200.677,129.564 204.357 C 124.882 222.334,121.477 267.220,123.900 279.027 C 125.997 289.245,129.226 301.160,131.580 307.363 L 134.028 313.814 128.374 327.055 C 117.658 352.157,110.043 373.526,108.582 382.599 C 108.239 384.731,109.333 392.390,111.012 399.620 C 112.692 406.850,114.417 417.069,114.847 422.328 C 115.284 427.681,116.462 433.162,117.522 434.781 C 120.171 438.823,118.928 440.884,113.393 441.626 C 91.533 444.558,84.279 455.678,104.695 454.961 C 110.304 454.764,116.809 453.846,119.149 452.921 C 121.489 451.997,124.932 450.911,126.800 450.508 C 130.868 449.630,132.246 446.768,130.187 443.471 C 128.665 441.033,123.845 418.113,121.481 402.070 C 120.771 397.254,119.717 390.117,119.139 386.211 C 118.524 382.066,118.544 378.017,119.185 376.485 C 119.790 375.041,123.078 366.474,126.493 357.447 C 129.908 348.419,134.357 337.398,136.381 332.955 L 140.059 324.877 149.613 334.341 C 164.440 349.030,174.579 352.275,195.442 349.011 C 212.427 346.354,231.628 338.281,238.075 331.087 C 239.624 329.358,241.324 328.427,241.853 329.017 C 242.382 329.608,249.766 338.708,258.263 349.240 C 266.760 359.772,274.361 368.396,275.154 368.405 C 275.947 368.414,277.724 370.161,279.103 372.289 C 281.911 376.620,282.167 374.830,274.712 403.040 C 272.768 410.395,270.248 422.104,269.111 429.060 L 267.043 441.707 270.604 444.571 C 278.246 450.721,298.423 452.315,299.787 446.878 C 301.088 441.695,294.884 437.573,283.211 435.863 L 277.667 435.052 278.762 428.772 C 279.364 425.318,282.290 412.267,285.264 399.769 C 292.176 370.718,293.782 374.597,257.434 332.523 L 245.880 319.149 248.075 314.821 C 257.819 295.605,256.343 240.251,245.149 205.082 C 241.861 194.750,241.367 192.082,242.849 192.650 C 247.086 194.276,276.079 211.172,285.714 217.631 C 291.398 221.441,298.647 225.704,301.824 227.104 L 307.599 229.651 307.598 236.102 C 307.598 239.650,306.515 249.119,305.192 257.143 C 303.869 265.167,302.775 277.323,302.761 284.156 L 302.736 296.579 297.293 300.569 C 286.132 308.751,282.931 326.692,293.657 320.951 C 297.224 319.042,296.670 318.541,301.385 327.948 C 304.629 334.418,306.122 336.022,311.560 338.874 C 321.482 344.077,321.824 344.150,324.857 341.694 L 327.643 339.438 323.673 327.324 C 320.644 318.083,318.648 314.125,315.257 310.633 L 310.812 306.056 312.349 288.286 C 313.195 278.513,314.934 262.890,316.214 253.569 C 319.996 226.027,319.572 222.584,312.183 220.819 C 310.358 220.384,305.981 217.582,302.456 214.595 C 291.067 204.939,261.398 186.459,261.398 189.020 C 261.398 189.404,258.252 188.130,254.407 186.189 C 250.562 184.248,244.742 181.638,241.474 180.388 C 235.937 178.271,235.240 177.509,231.285 169.253 C 228.207 162.826,225.497 159.168,221.423 155.940 C 218.333 153.492,215.299 151.065,214.679 150.545 C 214.017 149.991,214.370 148.699,215.534 147.412 C 223.496 138.614,228.110 112.410,222.842 105.905 L 220.496 103.008 213.895 105.502 C 205.195 108.791,171.906 122.404,166.848 124.742 C 162.046 126.962,153.908 128.354,138.863 129.529 C 127.013 130.455,124.012 132.107,124.012 137.705 C 124.012 143.686,135.040 157.146,142.859 160.709 C 146.699 162.458,146.672 163.366,142.697 166.262 C 140.500 167.862,138.678 171.216,136.886 176.959 C 133.773 186.929,133.414 187.078,112.462 187.086 C 100.430 187.091,80.085 188.528,65.841 190.379 L 60.557 191.065 61.412 187.022 C 62.812 180.407,74.908 144.633,78.311 137.042 L 81.463 130.012 85.140 134.199 C 91.308 141.223,98.943 142.120,102.116 136.193 C 104.163 132.368,102.710 129.652,95.394 123.630 L 88.755 118.164 94.169 114.991 C 101.358 110.778,103.343 107.663,103.343 100.599 C 103.343 89.562,95.249 84.859,87.178 91.208 " stroke="none" fill-rule="evenodd" style="fill: rgb(255, 255, 255);"/>
    </g>
  </g>
</svg>
